<?xml version="1.0" standalone="no"?>
<!DOCTYPE svg PUBLIC "-//W3C//DTD SVG 20010904//EN"
 "http://www.w3.org/TR/2001/REC-SVG-20010904/DTD/svg10.dtd">
<svg version="1.0" xmlns="http://www.w3.org/2000/svg"
 width="354.000000pt" height="355.000000pt" viewBox="0 0 354.000000 355.000000"
 preserveAspectRatio="xMidYMid meet">
<metadata>
Created by potrace 1.15, written by Peter Selinger 2001-2017
</metadata>
<g transform="translate(0.000000,355.000000) scale(0.100000,-0.100000)"
fill="#000000" stroke="none">
<path d="M980 2029 l0 -1061 21 -38 c36 -63 79 -80 203 -80 l106 0 0 1120 0
1120 -165 0 -165 0 0 -1061z"/>
<path d="M1469 2677 c-18 -12 -44 -38 -56 -56 l-23 -34 0 -1063 0 -1064 114 0
c101 0 117 2 147 23 18 12 44 38 56 56 l23 34 0 1063 0 1064 -114 0 c-101 0
-117 -2 -147 -23z"/>
<path d="M1810 1580 l0 -700 165 0 165 0 0 700 0 700 -165 0 -165 0 0 -700z"/>
<path d="M2230 1580 l0 -700 165 0 165 0 0 644 0 643 -23 34 c-44 66 -77 79
-198 79 l-109 0 0 -700z"/>
<path d="M1830 674 c0 -127 1 -134 20 -134 17 0 20 7 20 43 l0 42 42 0 c35 0
44 4 55 25 16 32 16 98 0 130 -11 22 -19 25 -75 27 l-62 2 0 -135z"/>
<path d="M2159 793 c-9 -10 -14 -40 -14 -78 0 -77 13 -95 70 -95 57 0 70 18
70 95 0 77 -13 95 -70 95 -27 0 -47 -6 -56 -17z"/>
</g>
</svg>
